<svg width="327" height="208" viewBox="0 0 327 208" fill="none" xmlns="http://www.w3.org/2000/svg">
<mask id="mask0_319_38" style="mask-type:alpha" maskUnits="userSpaceOnUse" x="0" y="0" width="327" height="208">
<rect width="327" height="208" rx="16" fill="url(#paint0_linear_319_38)"/>
</mask>
<g mask="url(#mask0_319_38)">
<rect x="-16" y="-9" width="373" height="234" fill="white"/>
<path d="M356.473 148C356.473 232.5 266.034 301 154.473 301C42.9114 301 -46.0654 251 -46.0654 166.5C-131.96 -72.5 215.5 304.5 392 28C290.5 225 356.473 63.5004 356.473 148Z" fill="#B3EFB1"/>
<path d="M378.894 206C378.894 290.5 288.456 359 176.894 359C65.3328 359 -25.1057 290.5 -25.1057 206C-111 -33 165 340.5 341.5 64C458.106 91.5 378.894 121.5 378.894 206Z" fill="#B3EFB1"/>
<path d="M378.894 206C378.894 290.5 288.456 359 176.894 359C65.3328 359 -25.1057 290.5 -25.1057 206C-111 -33 165 340.5 341.5 64C458.106 91.5 378.894 121.5 378.894 206Z" fill="#B3EFB1"/>
<path d="M364.253 186.5C364.253 271 273.815 339.5 162.253 339.5C50.6918 339.5 -46.0002 233.5 -46.0002 149C-131.894 -89.9999 192 352 368.5 75.5001C485.106 103 364.253 102 364.253 186.5Z" fill="#FFF0B2"/>
<path d="M378.894 206C378.894 290.5 288.456 359 176.894 359C65.3328 359 -25.1057 290.5 -25.1057 206C-111 -33 165 340.5 341.5 64C458.106 91.5 378.894 121.5 378.894 206Z" fill="#7DAFDD"/>
</g>
<defs>
<linearGradient id="paint0_linear_319_38" x1="0" y1="0" x2="327" y2="208" gradientUnits="userSpaceOnUse">
<stop stop-color="#DD9AC3"/>
<stop offset="0.487531" stop-color="#FFF0B2"/>
<stop offset="1" stop-color="#BFDEB1"/>
</linearGradient>
</defs>
</svg>
